<svg fill="none" height="75" viewBox="0 0 75 75" width="75" xmlns="http://www.w3.org/2000/svg"><path clip-rule="evenodd" d="m18.6353 55.9056c10.2919 10.292 26.9785 10.292 37.2704 0 10.292-10.2919 10.292-26.9784 0-37.2704-10.2919-10.29193-26.9785-10.29193-37.2704 0-10.29194 10.2919-10.29194 26.9785 0 37.2704zm1.6205-1.6204c9.3969 9.397 24.6325 9.397 34.0295 0s9.397-24.6325 0-34.0295-24.6326-9.397-34.0295 0c-9.397 9.397-9.397 24.6325 0 34.0295zm5.6715-26.7375 1.6205-1.6205 9.7227 9.7228 9.7227-9.7228 1.6205 1.6205-9.7227 9.7227 9.7227 9.7227-1.6205 1.6205-9.7227-9.7227-9.7227 9.7227-1.6205-1.6205 9.7228-9.7227z" fill="#000" fill-rule="evenodd"/></svg>