<svg fill="none" height="40" viewBox="0 0 56 40" width="56" xmlns="http://www.w3.org/2000/svg"><g stroke="#273359" stroke-linecap="round" stroke-linejoin="round" stroke-width="2"><path d="m34.333 38.2255c11.0457 0 20-8.3332 20-18.6128 0-10.2795-8.9543-18.6127-20-18.6127s-20 8.3332-20 18.6127c0 10.2796 8.9543 18.6128 20 18.6128z"/><path d="m7.66666 13.4084c3.68184 0 6.66664-2.7777 6.66664-6.20418 0-3.42649-2.9848-6.20422-6.66664-6.20422-3.6819 0-6.66666 2.77773-6.66666 6.20422 0 3.42648 2.98476 6.20418 6.66666 6.20418z"/><path d="m34.3336 21.6807c1.2273 0 2.2222-.9259 2.2222-2.068 0-1.1422-.9949-2.068-2.2222-2.068s-2.2223.9258-2.2223 2.068c0 1.1421.995 2.068 2.2223 2.068z"/></g></svg>