<svg fill="none" height="49" viewBox="0 0 69 49" width="69" xmlns="http://www.w3.org/2000/svg"><g stroke="#273359" stroke-linecap="round" stroke-linejoin="round" stroke-width="2"><path d="m51.5 23.0986c4.1421 0 7.5-3.3578 7.5-7.5 0-4.1421-3.3579-7.49997-7.5-7.49997s-7.5 3.35787-7.5 7.49997c0 4.1422 3.3579 7.5 7.5 7.5z"/><path d="m34 47.4736c0-4.4755 1.7779-8.7677 4.9426-11.9324s7.4569-4.9426 11.9324-4.9426 8.7677 1.7779 11.9324 4.9426 4.9426 7.4569 4.9426 11.9324"/><path d="m18.5 14.9597c4.1421 0 7.5-3.125 7.5-6.97984 0-3.85487-3.3579-6.97986-7.5-6.97986s-7.5 3.12499-7.5 6.97986c0 3.85484 3.3579 6.97984 7.5 6.97984z"/><path d="m1 37.6438c0-4.1651 1.7779-8.1596 4.94257-11.1048 3.16468-2.9452 7.45693-4.5998 11.93243-4.5998s8.7677 1.6546 11.9324 4.5998 4.9426 6.9397 4.9426 11.1048"/></g></svg>