<svg fill="none" height="512" viewBox="0 0 512 512" width="512" xmlns="http://www.w3.org/2000/svg"><g fill="#000"><path d="m464 152h-48v-24c0-4.416-3.584-8-8-8h-8v-24c0-30.88-25.12-56-56-56h-176c-30.88 0-56 25.12-56 56v24h-8c-4.416 0-8 3.584-8 8v24h-48c-22.056 0-40 17.944-40 40v208c0 22.056 17.944 40 40 40h4l21.6 28.8c1.512 2.016 3.88 3.2 6.4 3.2h48c2.52 0 4.888-1.184 6.4-3.2l21.6-28.8h200l21.6 28.8c1.504 2.016 3.88 3.2 6.4 3.2h48c2.52 0 4.888-1.184 6.4-3.2l21.6-28.8h4c22.056 0 40-17.944 40-40v-208c0-22.056-17.944-40-40-40zm-336 16h16v16h-16zm40-48h-8v-24c0-4.408 3.592-8 8-8h176c4.408 0 8 3.592 8 8v24h-8c-4.416 0-8 3.584-8 8v24h-160v-24c0-4.416-3.584-8-8-8zm200 48h16v16h-16zm-16-16v-16h48v16zm-224-56c0-22.056 17.944-40 40-40h176c22.056 0 40 17.944 40 40v24h-16v-24c0-13.232-10.768-24-24-24h-176c-13.232 0-24 10.768-24 24v24h-16zm-16 40h48v16h-48zm-64 32h64v24c0 4.416 3.584 8 8 8h32c4.416 0 8-3.584 8-8v-24h192v24c0 4.416 3.584 8 8 8h32c4.416 0 8-3.584 8-8v-24h64c13.232 0 24 10.768 24 24v24h-165.64c-18.024-14.976-41.152-24-66.36-24s-48.336 9.024-66.36 24h-165.64v-24c0-13.232 10.768-24 24-24zm120 128c0-48.52 39.48-88 88-88s88 39.48 88 88-39.48 88-88 88-88-39.48-88-88zm6.192 64h-150.192v-128h150.192c-13.848 17.672-22.192 39.856-22.192 64s8.344 46.328 22.192 64zm185.808-64c0-24.144-8.344-46.328-22.192-64h150.192v128h-150.192c13.848-17.672 22.192-39.856 22.192-64zm-236 160h-40l-12-16h64zm304 0h-40l-12-16h64zm36-32h-416c-13.232 0-24-10.768-24-24v-24h165.64c18.024 14.976 41.152 24 66.36 24s48.336-9.024 66.36-24h165.64v24c0 13.232-10.768 24-24 24z"/><path d="m224 360c0 4.424 3.584 8 8 8h48c4.416 0 8-3.576 8-8v-32h32c4.416 0 8-3.576 8-8v-48c0-4.424-3.584-8-8-8h-32v-32c0-4.416-3.584-8-8-8h-48c-4.416 0-8 3.584-8 8v32h-32c-4.416 0-8 3.576-8 8v48c0 4.424 3.584 8 8 8h32zm-24-48v-32h32c4.416 0 8-3.576 8-8v-32h32v32c0 4.424 3.584 8 8 8h32v32h-32c-4.416 0-8 3.576-8 8v32h-32v-32c0-4.424-3.584-8-8-8z"/></g></svg>