<svg fill="none" height="512" viewBox="0 0 334 512" width="334" xmlns="http://www.w3.org/2000/svg"><path d="m307.333 401v-200.555c6.662-8.113 10.667-18.486 10.667-29.779v-64c0-25.916-21.084-47-47-47-6.516 0-12.726 1.335-18.373 3.743-5.058-20.496-23.591-35.742-45.627-35.742-8.534 0-16.538 2.298-23.444 6.291-8.169-13.919-23.285-23.29-40.556-23.29-9.786 0-18.881 3.01-26.414 8.148-8.583-11.418-22.236-18.816-37.586-18.816-25.916 0-47 21.084-47 47v55.333h-32v139.458c0 41.197 26.868 76.233 64 88.516v70.693h-26.667v111h296.667v-111zm-240 30h28.667v51h-28.667zm26.667-96h81v-30h-81.792c-34.853 0-63.208-28.355-63.208-63.209v-109.458h113c12.314 0 22.333 10.019 22.333 22.333 0 12.315-10.019 22.334-22.333 22.334h-64v30h64c12.492 0 23.971-4.405 32.978-11.736 8.284 7.296 19.141 11.736 31.022 11.736 9.786 0 18.881-3.01 26.414-8.148 8.583 11.416 22.236 18.814 37.586 18.814 2.149 0 4.26-.158 6.333-.439v183.773h-183.333zm-15-305c9.374 0 17 7.626 17 17v55.333h-34v-55.333c0-9.374 7.626-17 17-17zm64 10.667c9.374 0 17 7.626 17 17v47.517c-5.334-1.838-11.05-2.85-17-2.85h-17v-44.667c0-9.374 7.626-17 17-17zm64 17c9.374 0 17 7.626 17 17v85.333c0 9.374-7.626 17-17 17-5.741 0-10.816-2.868-13.896-7.238 1.443-4.783 2.229-9.848 2.229-15.095 0-8.244-1.923-16.045-5.333-22.989v-57.011c0-9.374 7.626-17 17-17zm81 49v64c0 9.374-7.626 17-17 17s-17-7.626-17-17v-10.667-53.333c0-9.374 7.626-17 17-17s17 7.626 17 17zm-162 324.333h44.666v51h-44.666zm74.666 0h44.667v51h-44.667zm74.667 0h28.667v51h-28.667z" fill="#000"/></svg>