<svg fill="none" height="512" viewBox="0 0 512 512" width="512" xmlns="http://www.w3.org/2000/svg"><g fill="#000"><path d="m276 512c5.523 0 10-4.477 10-10s-4.477-10-10-10-10 4.477-10 10 4.477 10 10 10z"/><path d="m376 80c-7.283 0-14.112 1.966-20 5.382v-5.382c0-22.056-17.944-40-40-40-7.283 0-14.112 1.966-20 5.382v-5.382c0-22.056-17.944-40-40-40s-40 17.944-40 40v5.382c-5.888-3.416-12.717-5.382-20-5.382-22.056 0-40 17.944-40 40v127.077c-12.716-12.993-30.428-21.077-50-21.077-5.522 0-10 4.478-10 10v160c0 28.171 13.457 55.087 36 72l15.999 11.999c16.225 12.173 28.001 38.248 28.001 62.001 0 5.522 4.478 10 10 10h45c5.522 0 10-4.478 10-10s-4.478-10-10-10h-35.54c-2.497-23.731-13.737-51.702-35.46-68l-15.999-11.999c-17.533-13.155-28.001-34.09-28.001-56.001v-148.995c22.794 4.646 40 24.85 40 48.995v60c0 5.522 4.478 10 10 10 11.017 0 21.854 2.593 31.603 7.526 6.052 25.269 28.945 44.791 61.178 72.253 6.588 5.613 13.4 11.418 20.636 17.747 1.884 1.65 4.233 2.474 6.583 2.474s4.699-.824 6.584-2.474c7.235-6.329 14.048-12.134 20.636-17.747 37.804-32.21 62.78-53.489 62.78-85.939 0-29.526-20.947-53.84-50-53.84-19.864 0-32.464 11.341-40 22.295-7.536-10.954-20.136-22.295-40-22.295-26.128 0-45.804 19.686-49.401 45.348-6.64-2.396-13.556-4.007-20.599-4.792 0-6.05 0-220.414 0-226.556 0-11.028 8.972-20 20-20s20 8.972 20 20v136c0 5.522 4.478 10 10 10s10-4.478 10-10v-176c0-11.028 8.972-20 20-20s20 8.972 20 20v176c0 5.522 4.478 10 10 10s10-4.478 10-10v-136c0-11.028 8.972-20 20-20s20 8.972 20 20v136c0 5.522 4.478 10 10 10s10-4.478 10-10v-96c0-11.028 8.972-20 20-20s20 8.972 20 20v237.41c0 22.45-6.375 44.328-18.436 63.269-11.761 18.471-19.785 45.669-21.303 71.321h-35.261c-5.522 0-10 4.478-10 10s4.478 10 10 10h45c5.522 0 10-4.478 10-10v-1.31c0-24.492 7.236-51.682 18.436-69.27 14.107-22.155 21.564-47.748 21.564-74.01v-237.41c0-22.056-17.944-40-40-40zm-130 206c22.274 0 30.044 26.543 30.366 27.683 1.204 4.323 5.143 7.317 9.634 7.317 4.504 0 8.452-3.011 9.644-7.354.076-.278 7.842-27.646 30.356-27.646 17.103 0 30 14.548 30 33.84 0 23.215-20.984 41.095-55.751 70.716-4.613 3.931-9.336 7.954-14.249 12.197-4.913-4.243-9.636-8.267-14.249-12.197-34.767-29.621-55.751-47.501-55.751-70.716 0-19.292 12.897-33.84 30-33.84z"/></g></svg>