<svg fill="none" height="492" viewBox="0 0 492 492" width="492" xmlns="http://www.w3.org/2000/svg"><g fill="#000"><path d="m6 115.186c1.5913 0 3.11742-.632 4.2426-1.757 1.1253-1.126 1.7574-2.652 1.7574-4.243v-83.186c.004-3.7118 1.4802-7.2705 4.1049-9.8951 2.6246-2.6247 6.1833-4.1009 9.8951-4.1049h90.123c1.591 0 3.117-.6321 4.243-1.7574 1.125-1.12518 1.757-2.6513 1.757-4.2426s-.632-3.11742-1.757-4.24264c-1.126-1.125219-2.652-1.75736-4.243-1.75736h-90.123c-6.8933.00767582-13.502 2.74942-18.3763 7.6237-4.87428 4.8743-7.61602418 11.483-7.6237 18.3763v83.186c0 1.591.632141 3.117 1.75736 4.243 1.12522 1.125 2.65134 1.757 4.24264 1.757z"/><path d="m485.999 372.025c-1.591 0-3.117.632-4.242 1.757s-1.758 2.652-1.758 4.243v87.975c-.004 3.712-1.48 7.27-4.104 9.895-2.625 2.625-6.184 4.101-9.896 4.105h-83.558c-1.591 0-3.117.632-4.242 1.757s-1.758 2.652-1.758 4.243.633 3.117 1.758 4.243c1.125 1.125 2.651 1.757 4.242 1.757h83.558c6.894-.008 13.502-2.749 18.377-7.624 4.874-4.874 7.616-11.483 7.623-18.376v-87.975c0-1.591-.632-3.118-1.757-4.243s-2.651-1.757-4.243-1.757z"/><path d="m465.999 0h-81.878c-1.591 0-3.117.632141-4.243 1.75736-1.125 1.12522-1.757 2.65134-1.757 4.24264s.632 3.11742 1.757 4.2426c1.126 1.1253 2.652 1.7574 4.243 1.7574h81.878c3.712.004 7.271 1.4802 9.895 4.1049 2.625 2.6246 4.101 6.1833 4.105 9.8951v78.985c0 1.591.632 3.117 1.757 4.243 1.126 1.125 2.652 1.757 4.243 1.757s3.118-.632 4.243-1.757c1.125-1.126 1.757-2.652 1.757-4.243v-78.985c-.008-6.8933-2.749-13.502-7.624-18.3763-4.874-4.87428-11.483-7.61602418-18.376-7.6237z"/><path d="m26 492h77.521c1.591 0 3.117-.632 4.243-1.757 1.125-1.126 1.757-2.652 1.757-4.243s-.632-3.117-1.757-4.243c-1.126-1.125-2.652-1.757-4.243-1.757h-77.521c-3.7118-.004-7.2705-1.48-9.8951-4.105-2.6247-2.625-4.1009-6.183-4.1049-9.895v-77.053c0-1.591-.6321-3.117-1.7574-4.243-1.12518-1.125-2.6513-1.757-4.2426-1.757s-3.11742.632-4.24264 1.757c-1.125219 1.126-1.75736 2.652-1.75736 4.243v77.053c.00767582 6.893 2.74942 13.502 7.6237 18.376 4.8743 4.875 11.483 7.616 18.3763 7.624z"/><path d="m423.341 377.025-4.842-279.3351c-.155-6.8033-2.959-13.2774-7.815-18.0453-4.855-4.7678-11.38-7.4531-18.185-7.4847h-298.3095c-6.8932.008-13.5018 2.7498-18.3761 7.624-4.8742 4.8742-7.616 11.4828-7.6239 18.376v293.8061c.0052 6.886 2.7399 13.489 7.6047 18.363 4.8649 4.873 11.4632 7.619 18.3492 7.637 2.248.017 225.7516 1.743 313.9226 1.874h.025c2.087 0 4.152-.416 6.076-1.222 1.924-.807 3.668-1.988 5.131-3.476s2.615-3.251 3.389-5.189c.774-1.937 1.155-4.009 1.12-6.095l-.466-26.827zm-329.1515-292.8651h298.3095c3.664.0167 7.177 1.4621 9.791 4.0286 2.615 2.5665 4.125 6.0517 4.209 9.7144l4.552 262.4321-66.02-78.249c-2.191-3.409-5.148-6.259-8.637-8.322-3.488-2.063-7.41-3.282-11.453-3.559-4.043-.278-8.095.393-11.833 1.96-3.737 1.567-7.057 3.985-9.694 7.063l-32.236 37.628c-1.448 1.69-3.278 3.011-5.339 3.852-2.061.842-4.292 1.18-6.51.986-2.217-.193-4.357-.913-6.24-2.099-1.884-1.185-3.458-2.803-4.592-4.719l-58.166-98.31c-2.167-3.663-5.2-6.738-8.833-8.955-3.633-2.216-7.755-3.508-12.004-3.759-4.248-.252-8.494.542-12.363 2.314-3.87 1.772-7.246 4.467-9.831 7.848l-67.1105 87.767v-203.6211c.0042-3.7117 1.4805-7.2702 4.1051-9.8948s6.1831-4.101 9.8949-4.1052zm316.5475 322.5721c-.344.352-.756.632-1.211.822-.454.19-.943.288-1.436.286h-.006c-88.133-.131-311.5995-1.856-313.8945-1.874-3.7118-.004-7.2703-1.481-9.8949-4.105-2.6246-2.625-4.1009-6.183-4.1051-9.895v-70.428l76.6425-100.238c1.393-1.82 3.21-3.27 5.294-4.223 2.083-.954 4.369-1.381 6.656-1.245s4.506.831 6.462 2.024c1.956 1.194 3.589 2.849 4.755 4.821l58.166 98.31c2.105 3.558 5.028 6.562 8.527 8.764 3.498 2.203 7.472 3.539 11.59 3.898 4.118.36 8.263-.268 12.09-1.831s7.226-4.016 9.915-7.155l32.236-37.627c1.434-1.673 3.242-2.985 5.279-3.828 2.036-.842 4.242-1.192 6.439-1.022 2.197.171 4.322.858 6.203 2.006 1.882 1.147 3.466 2.722 4.623 4.597l.234.378 76.076 90.168.429 24.725c.01.494-.08.985-.264 1.444-.183.459-.457.877-.805 1.228z"/><path d="m266.752 221.582c7.964 0 15.748-2.361 22.37-6.786 6.621-4.424 11.782-10.712 14.829-18.07 3.048-7.357 3.845-15.453 2.292-23.263-1.554-7.811-5.389-14.985-11.02-20.616s-12.805-9.466-20.616-11.019c-7.81-1.554-15.906-.757-23.263 2.291-7.357 3.047-13.646 8.208-18.07 14.829-4.424 6.622-6.786 14.406-6.786 22.37.012 10.675 4.258 20.909 11.807 28.457 7.548 7.549 17.782 11.795 28.457 11.807zm0-68.528c5.59 0 11.055 1.658 15.703 4.763 4.648 3.106 8.271 7.52 10.41 12.685 2.139 5.164 2.699 10.847 1.608 16.33-1.09 5.483-3.782 10.519-7.735 14.472-3.953 3.952-8.989 6.644-14.472 7.735-5.482 1.09-11.165.531-16.33-1.609-5.164-2.139-9.579-5.761-12.684-10.409-3.106-4.648-4.764-10.113-4.764-15.703.01-7.493 2.991-14.677 8.289-19.975 5.299-5.299 12.482-8.28 19.975-8.289z"/></g></svg>