<svg fill="none" height="480" viewBox="0 0 480 480" width="480" xmlns="http://www.w3.org/2000/svg"><g fill="#000"><path d="m272 176.232h-64c-4.418 0-8 3.582-8 8v224c0 4.418 3.582 8 8 8h64c4.418 0 8-3.582 8-8v-224c0-4.419-3.582-8-8-8zm-8 224h-48v-208h48z"/><path d="m464 144.232h-64c-4.418 0-8 3.582-8 8v256c0 4.418 3.582 8 8 8h64c4.418 0 8-3.582 8-8v-256c0-4.419-3.582-8-8-8zm-8 256h-48v-240h48z"/><path d="m368 320.232h-64c-4.418 0-8 3.582-8 8v80c0 4.418 3.582 8 8 8h64c4.418 0 8-3.582 8-8v-80c0-4.419-3.582-8-8-8zm-8 80h-48v-64h48z"/><path d="m80 208.232h-64c-4.418 0-8 3.582-8 8v192c0 4.418 3.582 8 8 8h64c4.418 0 8-3.582 8-8v-192c0-4.419-3.582-8-8-8zm-8 192h-48v-176h48z"/><path d="m176 256.232h-64c-4.418 0-8 3.582-8 8v144c0 4.418 3.582 8 8 8h64c4.418 0 8-3.582 8-8v-144c0-4.419-3.582-8-8-8zm-8 144h-48v-128h48z"/><path d="m432.465 7.76904c-17.801-.128-32.335 14.19796-32.463 31.99896-.065 8.988 3.626 17.595 10.183 23.743l-66.4 121.784c-6.015-1.665-12.404-1.37-18.24.84l-61.769-92.695c11.835-13.125 10.789-33.36-2.337-45.194s-33.36-10.789-45.194 2.337c-8.695 9.644-10.701 23.586-5.077 35.29l-48.568 40.423c-13.324-9.719-31.884-7.544-42.6 4.992l-40.7279-20.368c3.694-17.283-7.323-34.288-24.605-37.981-17.283-3.694-34.288 7.322-37.981 24.605-3.694 17.283 7.322 34.288 24.605 37.981 2.205.471 4.454.708 6.709.707 9.225-.03 17.982-4.064 24-11.056l40.7279 20.368c-3.843 17.25 7.026 34.35 24.276 38.193s34.35-7.026 38.193-24.276c1.563-7.015.719-14.352-2.397-20.829l48.568-40.424c8.371 6.195 19.299 7.759 29.072 4.16l61.752 92.696c-11.803 13.154-10.707 33.386 2.448 45.189 13.154 11.803 33.386 10.707 45.189-2.448 11.658-12.993 10.752-32.931-2.036-44.813l66.4-121.784c2.55.666 5.173 1.01 7.808 1.024 17.801.128 32.335-14.198 32.463-31.999s-14.199-32.33496-31.999-32.46396zm-384.4649 112.46296c-8.837 0-16-7.163-16-16s7.163-16 16-16 16 7.163 16 16-7.163 16-16 16zm95.9999 48c-8.837 0-16-7.163-16-16s7.163-16 16-16 16 7.163 16 16-7.163 16-16 16zm96-80c-8.837 0-16-7.163-16-16s7.163-16 16-16 16 7.163 16 16-7.163 16-16 16zm96 144c-8.837 0-16-7.163-16-16s7.163-16 16-16 16 7.163 16 16-7.163 16-16 16zm96-176c-8.837 0-16-7.163-16-16s7.163-16 16-16 16 7.163 16 16-7.163 16-16 16z"/><path d="m472 424.232h-464c-4.418 0-8 3.582-8 8v32c0 4.418 3.582 8 8 8h464c4.418 0 8-3.582 8-8v-32c0-4.419-3.582-8-8-8zm-8 32h-448v-16h448z"/></g></svg>