<svg fill="none" height="472" viewBox="0 0 453 472" width="453" xmlns="http://www.w3.org/2000/svg"><path d="m382.54 147.662c1.591 0 3.117-.632 4.242-1.758 1.126-1.125 1.758-2.651 1.758-4.242v-2.3c8.348-.684 16.74-.653 25.084.09 1.207 4.721 4.097 8.838 8.126 11.579s8.92 3.917 13.755 3.306c4.834-.61 9.28-2.964 12.501-6.621 3.221-3.656 4.997-8.362 4.994-13.235v-55.7003c.003-4.8729-1.773-9.5792-4.994-13.2353-3.222-3.656-7.667-6.0102-12.502-6.6204-4.834-.6102-9.725.5655-13.754 3.3064-4.029 2.741-6.919 6.8585-8.126 11.5793-8.344.7439-16.735.7774-25.084.1v-2.311c0-1.5913-.632-3.1175-1.758-4.2427-1.125-1.1252-2.651-1.7573-4.242-1.7573h-56.054c-1.592 0-3.118.6321-4.243 1.7573s-1.757 2.6514-1.757 4.2427v2.3c-8.349.6842-16.741.6541-25.084-.09-1.207-4.7217-4.097-8.8403-8.126-11.582s-8.921-3.9179-13.756-3.3077c-4.835.6103-9.281 2.9651-12.502 6.6219-3.222 3.6569-4.997 8.3642-4.993 13.2378v55.7003c-.002 4.871 1.775 9.576 4.996 13.23 3.222 3.654 7.666 6.007 12.499 6.618 4.833.61 9.723-.565 13.751-3.305 4.028-2.739 6.918-6.854 8.128-11.573 8.343-.745 16.735-.779 25.084-.1v2.31c0 1.591.632 3.117 1.757 4.242 1.125 1.126 2.651 1.758 4.243 1.758h1.575c.038 3.145.07 6.777.094 9.892-1.15.424-2.143 1.19-2.844 2.196-.701 1.005-1.078 2.201-1.079 3.427v17.745c.001 1.208.366 2.387 1.049 3.384.682.997 1.65 1.765 2.776 2.203-.3 15.377-.966 28.414-1.82 42.707h-20.565l-8.663-17.423c-3.08-8.79-8.815-16.406-16.412-21.794s-16.681-8.282-25.995-8.281h-56.19c-7.323-.001-14.535 1.788-21.008 5.212-6.474 3.423-12.012 8.377-16.133 14.43.868-2.491 1.126-5.153.753-7.764s-1.367-5.094-2.897-7.242c-1.531-2.148-3.554-3.898-5.9-5.102-2.346-1.205-4.947-1.83-7.584-1.822h-3.871l8.383-160.0283c.048-.9229-.118-1.8445-.484-2.6929-.367-.8484-.924-1.6007-1.629-2.1981l-15.449-13.08703c-1.084-.917912-2.458-1.42167-3.878-1.42167-1.421 0-2.795.503758-3.878 1.42167l-15.449 13.08403c-.702.5944-1.258 1.3422-1.624 2.1856-.367.8434-.535 1.7597-.491 2.6784l7.645 160.0583h-3.126c-3.324-.005-6.572.993-9.319 2.863-2.748 1.869-4.8678 4.525-6.083 7.618-1.2151 3.094-1.469 6.482-.7285 9.722s2.4409 6.181 4.8795 8.44c-.7623 4.581-1.5743 8.855-2.3663 13.022-.525 2.763-1.03 5.434-1.51 8.121h-10.08c1.638-6.094 3.2-12.441 4.645-18.953 8.2477-37.454 12.4343-75.688 12.4863-114.0393 0-1.5913-.632-3.1174-1.758-4.2427-1.125-1.1252-2.651-1.7573-4.2423-1.7573h-87.88102c-1.5913 0-3.11743.6321-4.24264 1.7573-1.12522 1.1253-1.75736 2.6514-1.75736 4.2427 0 58.7633 9.97102 111.9673 20.99202 147.4523-6.7921 7.337-10.9334 16.736-11.764 26.7l-12.900023 152.9c-.523934 6.198.244784 12.439 2.257493 18.325 2.0127 5.886 5.22555 11.29 9.43513 15.871 4.2096 4.58 9.3243 8.236 15.0203 10.737 5.696 2.502 11.8492 3.793 18.0701 3.793h363.1123c6.22 0 12.373-1.291 18.069-3.792 5.695-2.501 10.81-6.157 15.019-10.737 4.21-4.58 7.423-9.984 9.436-15.869 2.013-5.886 2.782-12.126 2.259-18.324l-12.9-152.9c-1.008-11.203-6.155-21.627-14.436-29.238-8.281-7.612-19.101-11.864-30.348-11.926h-12.34c-.081-1.1-.161-2.195-.241-3.275-1-13.579-1.877-25.54-2.355-39.2 1.304-.319 2.464-1.066 3.293-2.122.83-1.055 1.281-2.359 1.283-3.701v-17.739c0-1.402-.491-2.759-1.387-3.837s-2.141-1.808-3.519-2.063c.027-3.178.063-6.643.109-9.619zm42.434-68.3493c.031-.3143.038-.6307.02-.946.104-2.0875 1.02-4.0515 2.553-5.4725s3.56-2.1865 5.65-2.133c2.089.0536 4.075.9219 5.533 2.4195s2.272 3.5059 2.27 5.596v55.7003c0 2.125-.845 4.163-2.347 5.666-1.503 1.502-3.541 2.347-5.666 2.347s-4.164-.845-5.666-2.347c-1.503-1.503-2.347-3.541-2.347-5.666zm-36.434 6.572c3.639.357 7.926.536 12.216.536s8.578-.18 12.218-.536v41.4893c-8.129-.714-16.305-.714-24.434 0zm-104.488 48.0583c-.033.314-.04.63-.021.946-.105 2.087-1.021 4.051-2.554 5.472-1.532 1.421-3.56 2.187-5.649 2.133-2.09-.053-4.075-.922-5.533-2.419-1.458-1.498-2.273-3.506-2.27-5.596v-55.7003c.023-2.1098.878-4.1252 2.378-5.6088s3.525-2.3157 5.635-2.3157 4.135.8321 5.635 2.3157 2.355 3.499 2.379 5.6088zm36.434-6.571c-8.129-.714-16.305-.714-24.434 0v-41.4873c3.639.357 7.927.536 12.218.536s8.577-.179 12.216-.536zm12 7.261v-55.4253c.022-.2946.022-.5905 0-.885v-.723h44.054v1.028c-.001.0076-.001.0153 0 .023v55.4003c-.023.295-.023.591 0 .887v.727h-44.054zm3.746 40.287v-5.743h36.567v5.743zm34.55 54.294h-32.524c.817-13.761 1.494-27.038 1.793-42.294h28.166c.483 13.972 1.375 26.109 2.389 39.9.058.788.117 1.595.176 2.394zm-30.721-81.552h27.938c-.047 3.121-.083 6.625-.107 9.515h-27.74c-.023-3.01-.053-6.468-.091-9.515zm-173.152 69.125c.119-.239.222-.486.308-.738 2.214-6.514 6.413-12.171 12.006-16.176 5.594-4.005 12.301-6.159 19.181-6.157h56.195c6.879-.002 13.587 2.152 19.18 6.157 5.594 4.005 9.792 9.662 12.007 16.176.085.252.188.499.308.738l6.178 12.427h-131.541zm-8.863-9.908c-.351.716-.676 1.448-.991 2.187-.056-.332-.113-.661-.168-1 .408-.378.794-.773 1.159-1.187zm-29.334-193.0173 9.3 7.878-8.26 157.6883h-2.825l-7.528-157.6773zm-16.923 177.5663h33.846c1.205 0 2.362.479 3.214 1.331.853.853 1.332 2.009 1.332 3.215 0 1.205-.479 2.362-1.332 3.214-.852.853-2.009 1.332-3.214 1.332h-33.846c-1.206 0-2.362-.479-3.215-1.332-.852-.852-1.331-2.009-1.331-3.214 0-1.206.479-2.362 1.331-3.215.853-.852 2.009-1.331 3.215-1.331zm36.449 35.958-.909 1.828h-38.473c.356-1.935.725-3.881 1.1-5.88.663-3.486 1.339-7.047 1.993-10.814h33.518c.657 3.774 1.336 7.334 2 10.818.266 1.362.518 2.703.771 4.048zm-132.3693-125.164h75.808c-.612 50.768-8.884 97.25-18.459 130.529-.2277.505-.3835 1.039-.463 1.588-4.712 16.1-9.711 28.992-14.253 37.63h-9.59c-3.654-6.519-7.585-16.039-11.413-27.893-.0839-.387-.2058-.764-.364-1.126-10.736-33.65-20.591-85.475-21.266-140.728zm48.264 187.7v5.01h-20.72v-10.963h20.72v5.949zm-2.008 42.721h-17.068c1.136-8.912 2.074-17.569 2.406-25.711h12.493c.273 7.942 1.059 16.319 2.169 25.707zm-37.108-61.255c.4135-4.928 1.9336-9.698 4.447-13.956 2.072 5.636 4.136 10.6 6.138 14.816-1.2155.384-2.2768 1.146-3.03 2.175s-1.1592 2.271-1.159 3.546v11.468c-3.026 1.654-5.8516 3.65-8.421 5.951zm-4.282 50.758c1.5166-7.324 5.4836-13.913 11.247-18.68.3424.731.8288 1.387 1.4301 1.926.6014.54 1.3054.952 2.0699 1.214-.3 7.366-1.164 15.479-2.526 26.033h-13.107zm199.7643 137.854h-175.5563c-4.5595 0-9.0693-.947-13.2441-2.78s-7.9236-4.513-11.0091-7.87c-3.0856-3.357-5.4407-7.317-6.9163-11.631-1.4757-4.315-2.0398-8.888-1.6565-13.431l6.72-79.649h131.5623v73.83c0 1.591.632 3.117 1.757 4.242 1.125 1.126 2.651 1.758 4.243 1.758h64.1zm-148.5463-153.355c1.2131-.387 2.272-1.149 3.0234-2.176.7515-1.028 1.1565-2.268 1.1566-3.541v-5.02h74.2663v36.731h-76.1903c-1.158-9.611-1.978-18.076-2.256-25.994zm90.4463 105.824v-116.561h128.2v116.561zm278.48 11.818c.383 4.543-.181 9.116-1.656 13.43-1.476 4.314-3.831 8.275-6.916 11.632s-6.834 6.037-11.009 7.87c-4.174 1.834-8.684 2.78-13.243 2.781h-175.556v-35.531h64.1c1.591 0 3.117-.632 4.242-1.758 1.126-1.125 1.758-2.651 1.758-4.242v-73.83h131.562zm-7.732-91.648h-130.548v-36.731h97.425c7.56.045 14.878 2.672 20.742 7.445 5.863 4.773 9.92 11.405 11.5 18.799zm-38-91.425c8.244.046 16.175 3.162 22.245 8.742 6.07 5.579 9.843 13.22 10.582 21.432l2.036 24.136c-8.217-7.451-18.904-11.589-29.995-11.616h-323.8823v-5.939c-.0011-1.309-.4303-2.582-1.2222-3.625-.7918-1.042-1.9029-1.797-3.1638-2.149 4.4893-10.061 8.3002-20.411 11.407-30.981h312.0003z" fill="#000"/></svg>