<svg width="275" height="108" viewBox="0 0 275 108" fill="none" xmlns="http://www.w3.org/2000/svg">
<path d="M63.8122 72.7283C41.4379 87.0402 12.83 91.7134 0 90.8094V93.9736C6.58379 94.1243 24.4107 93.7024 43.0479 90.8094C66.3444 87.1932 82.2099 81.569 111.924 72.7283C131.676 66.8519 148.895 60.9756 200.552 55.5512C230.939 52.3604 267.403 53.7431 275 55.5512V0.855888C262.845 -0.0482266 249.171 -0.500224 230.939 0.855888C189.113 3.96693 169.519 8.38925 135.221 25.7173C108.379 39.2782 94.1989 53.291 63.8122 72.7283Z" fill="#BF6196" fill-opacity="0.7"/>
<path d="M211.188 69.224C233.562 62.3451 262.17 60.099 275 60.5335L275 59.0127C268.416 58.9403 250.589 59.1431 231.952 60.5335C208.656 62.2716 192.79 64.9748 163.076 69.2239C143.324 72.0484 126.105 74.8727 74.4475 77.4798C44.0608 79.0134 7.59671 78.3489 1.44951e-06 77.4798L1.16515e-06 80.7207C12.1547 81.1552 25.8287 83.979 44.0608 83.3272C85.8866 81.832 105.481 100.148 139.779 91.8191C166.621 85.3013 180.801 78.5662 211.188 69.224Z" fill="#ECE134" fill-opacity="0.7"/>
<path d="M0 41.5038V10C6.98726 11.5002 23.177 15.1512 39.3673 18.501C65.953 24.0017 79.9874 23.5834 93.5612 31.0025C128.327 50.0048 116.057 60.006 149.289 69.5072C182.521 79.0083 191.212 81.1514 209.618 82.0087C224.956 82.7231 267.501 82.1668 275 81V103C275 103.911 256.995 105.345 241.316 107.512C232.454 108.012 198.881 109.012 179.965 105.011C166.822 102.232 153.89 95.0103 135.996 77.5081C118.102 60.006 95.6062 54.0053 60.8403 49.0047C33.0276 45.0042 25.0519 45.0042 0 41.5038Z" fill="#8BC24A" fill-opacity="0.7"/>
</svg>
