<svg fill="none" height="97" viewBox="0 0 109 97" width="109" xmlns="http://www.w3.org/2000/svg"><circle cx="52.5" cy="40.5" fill="#c8c5fd" r="30.5"/><g fill="#0b5da2"><path d="m6.40976 90.3889c0 .6454.21366 1.1412.64097 1.4875.44315.3463 1.03664.5194 1.78049.5194.66472 0 1.15534-.1102 1.47188-.3305.3165-.2204.5856-.5509.8071-.9917.2058-.4092.4828-.6139.8309-.6139h5.1278c.1425 0 .2612.0551.3561.1653.1108.0944.1662.2125.1662.3542 0 .9602-.3244 1.9046-.9733 2.8333-.6489.913-1.6381 1.6764-2.9675 2.2903-1.3136.5981-2.92.8972-4.81918.8972-1.69344 0-3.20488-.2519-4.53431-.7556-1.3136-.5194-2.35816-1.3064-3.13366-2.3611-.775499-1.0703-1.16325-2.4004-1.16325-3.9902v-2.7862c0-1.5898.387751-2.912 1.16325-3.9666.7755-1.0704 1.82006-1.8574 3.13366-2.3611 1.32943-.5195 2.84087-.7792 4.53431-.7792 1.89918 0 3.50558.3069 4.81918.9208 1.3294.5982 2.3186 1.3616 2.9675 2.2903.6489.913.9733 1.8495.9733 2.8097 0 .1417-.0554.2676-.1662.3778-.0949.0945-.2136.1417-.3561.1417h-5.1278c-.3481 0-.6251-.2047-.8309-.6139-.2215-.4408-.4906-.7713-.8071-.9917-.31654-.2203-.80716-.3305-1.47188-.3305-.74385 0-1.33734.1731-1.78049.5194-.42731.3463-.64097.8421-.64097 1.4875z"/><path d="m41.0369 96.0319c.0317.063.0475.1338.0475.2125 0 .1417-.0554.2676-.1662.3778-.0949.0945-.2136.1417-.3561.1417h-5.3889c-.2216 0-.4273-.0551-.6173-.1653-.1741-.1102-.3007-.2518-.3798-.425l-2.0891-4.675h-1.9942v4.6278c0 .1731-.0633.3227-.1899.4486s-.2769.1889-.451.1889h-5.1278c-.1741 0-.3245-.063-.4511-.1889s-.1899-.2755-.1899-.4486v-15.2528c0-.1731.0633-.3227.1899-.4486s.277-.1889.4511-.1889h9.2348c1.4244 0 2.6667.2283 3.7271.6847 1.0762.4565 1.8992 1.1176 2.469 1.9834.5697.8657.8546 1.881.8546 3.0458 0 2.1407-.8309 3.6912-2.4927 4.6514zm-7.9766-8.9013c.3482 0 .6173-.1102.8072-.3306.1899-.2361.2849-.5273.2849-.8736s-.095-.6454-.2849-.8972c-.1741-.2676-.4432-.4014-.8072-.4014h-2.9675v2.5028z"/><path d="m51.212 95.9611c-.2057.5352-.5618.8028-1.0683.8028h-4.4868c-.1424 0-.269-.0472-.3798-.1417-.095-.1102-.1425-.2361-.1425-.3778l.0238-.1416 5.1753-15.0875c.0633-.2047.182-.3857.3561-.5431.174-.1574.4114-.2361.7122-.2361h6.5996c.3007 0 .5381.0787.7122.2361s.2928.3384.3561.5431l5.1753 15.0875.0237.1416c0 .1417-.0554.2676-.1661.3778-.095.0945-.2137.1417-.3561.1417h-4.4869c-.5064 0-.8625-.2676-1.0683-.8028l-.5935-1.6528h-5.7925zm3.4898-11.168-1.6855 4.9111h3.371z"/><path d="m85.0795 80.2361c.1741 0 .3245.063.4511.1889s.1899.2755.1899.4486v15.2528c0 .1731-.0633.3227-.1899.4486s-.277.1889-.4511.1889h-3.8221c-.3798 0-.6964-.1653-.9496-.4958l-5.1753-6.5639v6.4222c0 .1731-.0633.3227-.1899.4486s-.277.1889-.4511.1889h-4.4156c-.1741 0-.3244-.063-.451-.1889s-.1899-.2755-.1899-.4486v-15.2528c0-.1731.0633-.3227.1899-.4486s.2769-.1889.451-.1889h3.8459c.3798 0 .6884.1574.9258.4722l5.1753 7.107v-6.9417c0-.1731.0633-.3227.1899-.4486.1267-.1259.277-.1889.4511-.1889z"/><path d="m108.359 92.1597c.174 0 .324.063.451.1889s.19.2755.19.4486v3.3292c0 .1731-.063.3227-.19.4486s-.277.1889-.451.1889h-15.0036c-.174 0-.3244-.063-.451-.1889s-.1899-.2755-.1899-.4486v-15.2528c0-.1731.0633-.3227.1899-.4486s.277-.1889.451-.1889h14.7666c.174 0 .324.063.451.1889.126.1259.19.2755.19.4486v3.3292c0 .1731-.064.3227-.19.4486-.127.1259-.277.1889-.451.1889h-9.2352v1.4875h7.9292c.174 0 .324.0629.451.1889.127.1259.19.2754.19.4486v3.0694c0 .1732-.063.3227-.19.4486-.127.126-.277.1889-.451.1889h-7.9292v1.4875z"/><path d="m35.2376 58.8188c-6.8293-6.9067-10.1188-12.432-11.3093-13.8133-1.1904-1.3814-2.8611-1.776-4.0515-1.776s-.1561-.7332 1.7856-1.1841c4.25-.9866 8.4166 6.1174 13.2934 7.6961 2.1093.6828 2.6627-.1974 3.3729-1.184.4802-1.9734.2381-2.6443-1.1905-5.328-1.7856-3.3547-5.5554-9.2747-9.722-10.2614s-4.7617 1.3813-4.7617 0 7.1427-4.3414 4.7617-4.5387c-1.9047-.1579-5.6876 1.5129-7.341 2.368-2.2893 1.184-3.0911.3947-.9921-1.5787 1.3527-1.2716 3.7494-1.7988 6.7199-2.6577-1.7819.477-4.4241.9381-5.7278.2897-1.1412-.5675 1.459-.9391 4.063-1.1525-2.5896.0669-5.8282.0578-8.2296-.2288-3.9681-.4736 6.0184-1.9076 11.5076-2.5653-2.3147-.2632-7.6188-1.0656-10.3171-2.1707-2.6984-1.1051 7.3411.0658 12.6981.7893-2.3809-.7893-7.7777-2.6837-10.3173-3.9467-3.1745-1.5786 12.1029 2.1707 7.9363.592-3.3332-1.2629 4.5634-.5262 8.9284 0-.5291-.7893-3.2061-2.5653 4.6468.9867 4.9336 2.2316 7.8024 4.6671 9.722 8.4854 2.1825 4.3413 2.7777 5.92 3.7697 8.0907 2.6642 5.8295 5.2736 8.6827 9.8369 9.6693 4.5634.9867 8.1617-4.7463 7.7379-11.4453-.5117-8.0907-7.0858-12.4321-8.1347-15.7868-.6169-1.9733 0-2.7626.3968-3.9466.3969-1.184 1.7857-1.776 2.1825-2.7627s1.7857-3.94668 2.3809-6.11735c.4762-1.73654 1.6534-3.61779 2.1825-4.34135-.5291 3.22312-1.5476 9.7483-1.3888 10.064.1984.3947.5952 5.328 1.3888 8.6827s4.182 8.7818 5.357 14.6027c1.0755 5.328 1.1905 13.0241-4.5634 21.1148-5.7538 8.0906-12.6146 9.2514-16.5828 10.064-3.9681.8125-6.7458.592-10.714-.7894-3.4429-1.1984-7.8249-4.4027-9.3251-5.92z" stroke="#0b5da2"/></g></svg>