<svg fill="none" height="314" viewBox="0 0 367 314" width="367" xmlns="http://www.w3.org/2000/svg"><path d="m49.9113 211.976c21.275 0 38.5217-35.168 38.5217-78.55 0-43.3816-17.2467-78.5495-38.5217-78.5495-21.2749 0-38.5217 35.1679-38.5217 78.5495 0 43.382 17.2468 78.55 38.5217 78.55z" fill="#8bc24a"/><g fill="#424c6e"><path d="m49.558 134.241c1.9215-34.192 5.7931-57.2879 5.832-57.5173l-.84-.1422c-.0389.2296-3.9173 23.3623-5.842 57.5985-1.7762 31.598-2.2047 79.392 5.8418 127.64l.8405-.14c-8.0328-48.166-7.6053-95.887-5.8323-127.439z"/><path d="m84.3414 117.496-34.8297 18.63.4021.751 34.8297-18.63z"/><path d="m13.1451 126.834-.4019.75 34.8346 18.621.402-.751z"/></g><path d="m317.024 203.81c27.601 0 49.975-45.624 49.975-101.905 0-56.2805-22.374-101.905-49.975-101.905-27.6 0-49.975 45.6245-49.975 101.905 0 56.281 22.375 101.905 49.975 101.905z" fill="#8bc24a"/><g fill="#424c6e"><path d="m316.418 102.949c2.493-44.3656 7.517-74.333 7.568-74.6306l-.797-.1348c-.05.2978-5.08 30.3002-7.577 74.7074-2.304 40.986-2.86 102.979 7.577 165.559l.797-.132c-10.424-62.503-9.869-124.427-7.568-165.369z"/><path d="m361.761 81.3697-45.186 24.1693.381.712 45.186-24.1695z"/><path d="m269.256 93.4834-.381.7119 45.192 24.1567.381-.711z"/></g><path d="m256.813 231.411c10.312 0 18.672-17.047 18.672-38.075s-8.36-38.074-18.672-38.074c-10.313 0-18.672 17.046-18.672 38.074s8.359 38.075 18.672 38.075z" fill="#e6e6e6"/><path d="m256.796 194.976.11.207 16.883-9.031-.381-.711-16.577 8.867c.917-16.874 2.794-28.201 2.831-28.424l-.796-.134c-.041.243-2.27 13.694-3.062 33.157l-16.719-8.943-.381.712 16.883 9.031.201-.377c-.633 16.064-.278 36.151 3.078 56.273l.797-.132c-3.659-21.94-3.74-43.838-2.867-60.495z" fill="#424c6e"/><path d="m351.423 276.81c-99.455-31.464-189.638-29.788-247.779-22.841-62.9886 7.526-102.957868 22.681-103.354086 22.833l-.289914-.754c.397401-.152 40.4608-15.343 103.548-22.88 37.109-4.429 74.551-5.386 111.838-2.86 46.289 3.132 92.039 11.77 136.281 25.732z" fill="#424c6e"/><path d="m127.842 267.918s.279-5.841 5.997-5.162z" fill="#424c6e"/><path d="m126.226 262.36c1.581 0 2.862-1.281 2.862-2.86 0-1.58-1.281-2.86-2.862-2.86-1.58 0-2.862 1.28-2.862 2.86 0 1.579 1.282 2.86 2.862 2.86z" fill="#8bc24a"/><path d="m126.568 264.316h-.808v5.651h.808z" fill="#424c6e"/><path d="m232.05 269.129s.279-5.841 5.997-5.162z" fill="#424c6e"/><path d="m230.434 263.571c1.581 0 2.862-1.281 2.862-2.86 0-1.58-1.281-2.86-2.862-2.86-1.58 0-2.862 1.28-2.862 2.86 0 1.579 1.282 2.86 2.862 2.86z" fill="#8bc24a"/><path d="m230.776 265.527h-.808v5.651h.808z" fill="#424c6e"/><path d="m60.3887 259.038s.2789-5.841 5.9968-5.162z" fill="#424c6e"/><path d="m58.7729 253.48c1.5806 0 2.8618-1.281 2.8618-2.86 0-1.58-1.2812-2.86-2.8618-2.86-1.5805 0-2.8618 1.28-2.8618 2.86 0 1.579 1.2813 2.86 2.8618 2.86z" fill="#8bc24a"/><path d="m59.1154 255.436h-.8078v5.651h.8078z" fill="#424c6e"/><path d="m104.415 251.368s.279-5.841 5.997-5.162z" fill="#424c6e"/><path d="m102.799 245.81c1.581 0 2.862-1.28 2.862-2.86 0-1.579-1.281-2.86-2.862-2.86-1.58 0-2.8615 1.281-2.8615 2.86 0 1.58 1.2815 2.86 2.8615 2.86z" fill="#8bc24a"/><path d="m103.141 247.766h-.808v5.651h.808z" fill="#424c6e"/><path d="m214.682 262.267s.279-5.841 5.997-5.162z" fill="#424c6e"/><path d="m213.066 256.709c1.58 0 2.862-1.281 2.862-2.86 0-1.58-1.282-2.86-2.862-2.86-1.581 0-2.862 1.28-2.862 2.86 0 1.579 1.281 2.86 2.862 2.86z" fill="#8bc24a"/><path d="m213.408 258.665h-.807v5.651h.807z" fill="#424c6e"/><path d="m338.884 250.558 16.624 24.634-15.478 15.468-2.006-4.01 3.439-8.021s-.573-7.447-2.579-9.452-10.892-14.036-10.892-14.036z" fill="#ffb8b8"/><path d="m317.674 170.927s3.152 4.986-3.44 26.469c0 0 30.749 51.865 25.877 55.302-4.873 3.437-18.058 11.044-21.498 8.753-3.439-2.292-28.455-79.925-28.455-79.925z" fill="#2f2e41"/><path d="m352.499 270.752 5.016 5.013c2.579 2.578 4.299 6.302-.573 9.453-4.873 3.151-21.784 14.895-27.516 11.171-5.733-3.724 6.879-7.161 6.879-7.161s2.085-7.727 3.192-6.012 1.107 5.153 1.107 5.153z" fill="#2f2e41"/><path d="m291.878 264.021s-9.172 16.9-9.172 18.905.573 7.734.573 7.734l-17.484 4.296-6.019-2.864 2.007-5.156s10.891-3.724 13.184-10.885 4.873-14.608 4.873-14.608z" fill="#ffb8b8"/><path d="m302.483 95.8799c6.649 0 12.039-5.3862 12.039-12.0305s-5.39-12.0306-12.039-12.0306c-6.648 0-12.038 5.3863-12.038 12.0306s5.39 12.0305 12.038 12.0305z" fill="#ffb8b8"/><path d="m299.33 94.1615 5.747 16.5035 12.597-5.619s-8.599-13.176-8.599-14.8946z" fill="#ffb8b8"/><path d="m297.61 152.882h15.191s10.892 16.614 4.586 34.086c-.966 2.676-1.924 6.424-2.881 10.856-2.2 10.19-4.391 23.995-6.636 36.68-3.154 17.818-6.414 33.427-9.959 33.711-7.165.573-21.099.477-21.099-2.387 0-2.865 9.333-85.734 9.333-85.734l2.006-3.437.38-14.973c.059-2.363 1.044-4.608 2.741-6.253 1.698-1.646 3.973-2.561 6.338-2.549z" fill="#2f2e41"/><path d="m282.563 282.783s3.296 5.585 2.436 9.595c-.86 4.011-2.293 3.438-8.599 4.011s-27.802.573-27.802-3.438c0-4.01 16.769-9.218 16.84-7.616.07 1.601.644 4.752-1.076 5.325s-.143.143-.143.143z" fill="#2f2e41"/><path d="m299.332 188.634s-1.247 20.348-9.563 14.29c-8.316-6.057 3.241-16.999 3.241-16.999z" fill="#fff"/><path d="m315.93 161.836c.399.18.841.248 1.276.197.435-.052.849-.221 1.195-.489.503-.395.838-.965.938-1.596 1.202-6.927 2.666-26.13 3.509-35.841 1.058-12.184-4.227-21.622-4.271-21.679l-3.114-4.2796c-.324-.4471-.789-.7717-1.321-.9208-.531-.1491-1.098-.114-1.607.0997 0 0-9.722 10.0807-9.758 10.4697-.153 1.672-1.31 5.376-7.341 11.403-6.6 6.595-6.636 12.352-6.49 13.959.009.105.014.211.015.316-.013.721.085 1.44.29 2.132 2.764 8.708.6 19.135-2.876 30.019-.132.491-.108 1.012.07 1.489.177.478.499.888.92 1.174 1.015.691-.203-.334.16.11 2.395 2.934 5.843-1.155 9.786-5.617 1.374-1.554 2.931-3.315 4.766-5.149 2.523-2.522 7.344 3.232 9.586 3.232 1.475.018 2.929.349 4.267.971z" fill="#bf6196"/><path d="m317.267 106.871s6.297 5.307 2.72 12.189-3.102 11.958-3.102 11.958-.952 47.277-12.129 44.98l-5.084 14.028-9.183-3.312 5.31-12.373s-4.253-.264-3.01-3.16c.873-2.034 5.575-24.105 8.297-37.064 1.153-5.491 1.951-9.346 1.951-9.346s3.618-19.332 14.23-17.9z" fill="#bf6196"/><path d="m318.587 130.896-3.54 23.214 1.91-24.822z" fill="#000" opacity=".2"/><path d="m289.349 78.5191s-2.024-15.7405 14.489-10.5788c0 0 11.794-2.1626 15.662 12.5803l3.916 15.4543-1.908-1.0382-.89 1.9437-3.093.7828-1.324-2.6252-.64 3.188-25.332 2.524s11.346-6.7057 11.526-18.7235l-2.161 2.2823z" fill="#2f2e41"/><path d="m308.188 235.409 5.648-37.615-4.594 40.607z" fill="#000" opacity=".2"/><path d="m317.419 74.4598c3.517 0 6.369-2.85 6.369-6.3656 0-3.5157-2.852-6.3657-6.369-6.3657-3.518 0-6.37 2.85-6.37 6.3657 0 3.5156 2.852 6.3656 6.37 6.3656z" fill="#2f2e41"/><path d="m310.856 66.5358c.105-1.615.821-3.1295 2.004-4.2349s2.743-1.7186 4.363-1.7147c-.132-.0166-.262-.0369-.396-.0455-.835-.0541-1.673.0567-2.465.3262s-1.523.6923-2.152 1.2443c-.628.552-1.142 1.2223-1.511 1.9727-.37.7504-.587 1.5662-.641 2.4007s.058 1.6714.328 2.4629c.27.7914.693 1.522 1.246 2.1499s1.224 1.1408 1.975 1.5094 1.567.5857 2.402.6389c.134.0087.266.0052.399.0055-1.607-.2034-3.075-1.0111-4.107-2.2588-1.031-1.2477-1.548-2.8414-1.445-4.4566z" fill="#2f2e41"/><path d="m299.241 138.13-5.604 30.018 7.264-33.155z" fill="#000" opacity=".2"/><path d="m299.591 92.519-3.267 2.4611c-3.363-1.6918-5.887-5.6061-6.803-9.3421l3.559-1.7947c.28 3.8104 2.986 6.3437 6.511 8.6757z" fill="#fff"/><path d="m300.947 84.3855h-8.139c-.072 0-.141-.0285-.191-.0794-.051-.0508-.08-.1198-.08-.1917s.029-.1409.08-.1917c.05-.0509.119-.0794.191-.0794h8.139c.072 0 .141.0285.192.0794.051.0508.079.1198.079.1917s-.028.1409-.079.1917c-.051.0509-.12.0794-.192.0794z" fill="#fff"/><path d="m299.32 92.5189c-.044 0-.088-.0108-.127-.0316-.039-.0207-.073-.0508-.098-.0875-.024-.0367-.04-.0789-.045-.1229-.004-.0441.002-.0886.018-.1297l2.171-5.4223c.013-.0332.032-.0634.057-.089s.055-.046.087-.0601c.033-.0141.068-.0216.104-.0221.036-.0004.071.0061.104.0194.033.0132.064.0329.089.0578.026.0249.046.0546.06.0874s.021.068.022.1037c0 .0356-.007.071-.02.1041l-2.17 5.4223c-.02.0503-.055.0935-.1.1239s-.098.0466-.152.0466z" fill="#fff"/><path d="m301.494 87.589c1.1 0 1.991-1.2469 1.991-2.785s-.891-2.785-1.991-2.785c-1.099 0-1.99 1.2469-1.99 2.785s.891 2.785 1.99 2.785z" fill="#ffb8b8"/><path d="m161.236 93.1932 21.2 4.8482 8.957-16.8827-18.127-7.0728z" fill="#2f2e41"/><path d="m172.5 184.076s-6.814 15.607-6.814 20.147c0 0 2.697 12.343 1.845 15.748l-2.981 6.385-6.247-2.554-1.703-17.025.284-27.241z" fill="#ffb9b9"/><path d="m176.332 90.7189s.568 9.3641-.567 12.2021c-1.136 2.837 4.259 8.229 4.259 8.229l8.518-11.067s-5.679-5.6753-4.259-11.918z" fill="#ffb9b9"/><path d="m158.587 155.558s-8.234 15.323-.284 14.188 5.253-14.614 5.253-14.614" fill="#e6e6e6"/><path d="m163.556 155.132 2.697-26.815-.142-16.316-6.247 1.135v15.039l-1.277 27.383" fill="#ffb9b9"/><path d="m156.741 221.816 12.209-4.824 1.42 24.119s2.556 7.378 1.704 10.216c0 0 .568 4.823-.852 5.107s-5.395.852-5.679.568-.284-1.135-.284-1.135-2.839 1.986-3.123 4.256c0 0-11.926 3.689-12.21.284s5.963-6.243 5.963-6.243l4.827-7.378z" fill="#2f2e41"/><path d="m197.912 184.076s-6.814 15.607-6.814 20.147c0 0 2.697 12.343 1.845 15.748l-2.981 6.385-6.247-2.554-1.703-17.025.284-27.241z" fill="#ffb9b9"/><path d="m182.58 221.816 12.209-4.824 1.42 24.119s2.555 7.378 1.704 10.216c0 0 .567 4.823-.852 5.107-1.42.284-5.395.852-5.679.568s-.284-1.135-.284-1.135-2.839 1.986-3.123 4.256c0 0-11.926 3.689-12.21.284s5.963-6.243 5.963-6.243l4.827-7.378z" fill="#2f2e41"/><path d="m188.261 84.1941c-.001 2.2347-.827 4.3905-2.319 6.055s-3.545 2.7207-5.768 2.9667c-2.222.246-4.458-.3357-6.278-1.6336-1.82-1.298-3.097-3.2211-3.588-5.4014-.149-.6516-.224-1.3181-.222-1.9867.002-2.4075.96-4.7159 2.664-6.4177s4.014-2.6577 6.423-2.6577 4.72.9559 6.424 2.6577 2.662 4.0102 2.664 6.4177z" fill="#ffb9b9"/><path d="m180.308 102.353 7.051-3.6592 3.171 2.5242s7.666-.284 10.506 3.121c2.839 3.406 4.401 12.06 4.401 12.06s-9.37-1.986-8.235 5.959l-1.703-4.54-1.562 3.831-19.024 6.526-8.518-14.472s-5.679-1.702-7.666 2.271c0 0 .425-14.33 5.962-14.756 3.724-.286 6.531-.284 6.531-.284l3.123-.567 2-.7096z" fill="#bf6196"/><path d="m192.375 133.425s14.907 44.692 10.648 50.935c0 0-15.9 7.945-47.702-2.838l12.92-50.083c7.935-1.622 15.98-.96 24.134 1.986z" fill="#2f2e41"/><path d="m192.376 133.425 4.195-14.408c-5.032-5.47-.689-17.599-.689-17.599l-6.072-1.3s-6.094 16.423-12.341 14.437c-6.246-1.987-2.839-14.7557-2.839-14.7557l-5.679.5677-2.555 9.931 1.845 21.141c7.697-.66 15.77.107 24.135 1.986z" fill="#bf6196"/><path d="m199.758 155.132 1.988-26.957.567-16.174-6.246 1.135v15.039l-1.278 27.383" fill="#ffb9b9"/><path d="m194.789 155.558s-8.234 15.323-.284 14.188c7.951-1.135 5.253-14.614 5.253-14.614" fill="#fff"/><path d="m205.437 116.399s-1.009-14.572-9.449-14.522v16.853s6.326-3.75 9.449-2.331z" fill="#bf6196"/><path d="m182.079 86.5372c-.048 0-.095-.0149-.135-.0426-.039-.0278-.068-.067-.084-.1123s-.018-.0944-.004-.1406c.013-.0461.04-.087.078-.117l4.634-3.7048c.023-.0193.051-.0336.08-.0423.029-.0086.06-.0114.091-.0081.03.0033.059.0125.086.0272s.051.0346.07.0584c.019.0239.033.0513.041.0806.009.0294.011.0601.008.0905-.003.0303-.013.0597-.028.0864s-.035.0502-.059.0691l-4.634 3.7048c-.041.0329-.092.0507-.144.0507z" fill="#fff"/><path d="m182.429 92.0942c-.102.1251-.204.2501-.311.3659-1.229.5571-2.567.8334-3.917.8089s-2.677-.3493-3.886-.9507c-1.208-.6014-2.267-1.4643-3.1-2.526-.833-1.0618-1.419-2.2956-1.715-3.6119l4.391-.8074 8.538.8074c-1.956 2.3803-1.719 3.2046 0 5.9138z" fill="#fff"/><g fill="#2f2e41"><path d="m174.042 71.4829s-4.696.8828-5.782 6.7361c-.17.9871-.201 1.993-.092 2.9887.108 1.1267-.049 3.5064-2.497 6.3085-1.597 1.8174-3.086 3.7277-4.457 5.7207l4.907 1.3055 2.192-8.125c1.063-3.9392 2.701-7.7005 4.86-11.163l.045-.0722s1.63 4.352 5.999 4.9486l-1.347-1.7722s5.106 2.9501 7.999 3.8514c.331.1029.627.2939.856.5524.23.2584.384.5746.448.9145.063.3398.032.6904-.09 1.0141-.121.3236-.329.6079-.6.8224-.021.0161-.042.0322-.063.0484-2.128 1.6153-6.469 5.4694-4.754 9.1978s-.285 4.4082-.285 4.4082l3.688-1.4022 1.688-.7224-.17 1.2473 8.24.1726s2.227-.0136-1.728-5.9538c0 0-.955-2.2274-.171-3.929.629-1.2887.942-2.7084.913-4.1418-.249-5.9889-2.774-18.1728-19.799-12.9556z"/><path d="m58.4436 242.075s0 38.533-8.8493 48.64c0 0-1.8963 5.054-2.5284 6.949-.3534 1.079-.7757 2.134-1.2642 3.158v2.527s-17.0665-1.895-18.9628-6.317l3.1604-3.79s.6321-.632 0-2.527 1.2642-1.895 1.2642-1.895l4.4247-10.107-.6321-41.692 3.1605-57.484 27.1801-1.263z"/><path d="m44.5378 299.559s4.4246 13.266 0 13.897c-4.4247.632-42.98252 1.264-42.35043-3.79.6321-5.053 13.27403-4.422 13.27403-4.422l13.274-8.212z"/><path d="m83.7276 179.537s1.2642 8.212-3.7925 17.056c-5.0568 8.844-1.8963 38.533-1.8963 38.533l44.8792 39.165s-8.85 15.161-12.01 14.529c-3.161-.632-53.0963-41.06-53.0963-41.06l-19.5949-65.696z"/><path d="m122.301 272.617s13.58 3.367 11.745 7.44c-1.834 4.073-21.942 36.958-25.875 33.719s3.369-13.572 3.369-13.572l.166-15.601z"/></g><path d="m73.6142 62.0435c.0051 3.3279-1.1397 6.5555-3.2408 9.1374-1.6613 2.0577-3.8543 3.622-6.3414 4.5235-2.4872.9015-5.1737 1.1059-7.7687.591-1.2994-.251-2.5569-.6835-3.7357-1.2847-1.8721-.943-3.5179-2.2797-4.8242-3.9184-1.3064-1.6387-2.2424-3.5405-2.7438-5.5748-.2825-1.1364-.4244-2.3031-.4225-3.474 0-3.8534 1.5318-7.549 4.2583-10.2738s6.4244-4.2555 10.2803-4.2555c3.8558 0 7.5538 1.5307 10.2803 4.2555s4.2582 6.4204 4.2582 10.2738z" fill="#a0616a"/><path d="m70.5154 67.1685-.643 18.696-12.2328 4.8303s-1.1997-19.1435-2.8931-20.2049c-1.6934-1.0613 15.7689-3.3214 15.7689-3.3214z" fill="#a0616a"/><path d="m54.6509 92.9949s17.0665-17.0558 21.4912-16.4241 4.4247 2.5268 4.4247 3.7902-1.2642 1.8951 0 2.5268 2.5283 0 2.5283 1.8951c0 1.895 11.3778 20.8461 7.5852 41.6921s-8.2173 30.953-6.321 42.323c1.8963 11.371.6321 13.897.6321 13.897s-47.4071 3.791-48.0392-.631 1.8963-1.895-1.2642-5.054c-3.1605-3.158-1.8963-3.158-1.8963-5.053 0-1.896 13.9061-78.9621 20.8592-78.9621z" fill="#bf6196"/><path d="m63.5009 178.905s-7.5851 18.32-13.274 13.898 2.5284-19.583 2.5284-19.583z" fill="#fff"/><path d="m81.8306 94.2583s14.8511 1.6992 9.3218 28.9597c-5.5292 27.261-27.0205 58.846-27.0205 58.846l-14.5381-6.949 18.9628-37.27-4.4247-23.373s-2.5283-22.1088 17.6987-20.2137z" fill="#bf6196"/><path d="m68.8731 138.161-20.8594 34.743 1.8963 1.895z" fill="#000" opacity=".2"/><path d="m79.9144 154.352-16.7298 27.396h5.689z" fill="#000" opacity=".2"/><path d="m42.1236 204.139-.8404.32 16.6336 43.584.8403-.32z" fill="#000" opacity=".2"/><path d="m54.741 96.4633c.4966 0 .8992-.4024.8992-.8987s-.4026-.8986-.8992-.8986-.8992.4023-.8992.8986.4026.8987.8992.8987z" fill="#d0cde1"/><path d="m47.0977 120.726c.0961 0 .1896-.03.2669-.087s.1342-.138.1625-.229l7.6432-24.7125c.0176-.0564.0239-.1157.0185-.1745s-.0224-.116-.0499-.1683c-.0275-.0522-.0651-.0986-.1105-.1363-.0455-.0377-.098-.0661-.1544-.0836-.0565-.0174-.1158-.0236-.1747-.0181-.0588.0055-.116.0225-.1682.0501-.0523.0277-.0986.0653-.1362.1108-.0377.0455-.066.098-.0834.1544l-7.6432 24.713c-.0207.067-.0253.138-.0135.207s.0397.135.0815.192c.0417.056.0962.102.159.134.0627.032.1321.048.2024.048z" fill="#d0cde1"/><path d="m56.1604 73.171-3.6332 3.4542c-3.7417-1.8818-7.3559-6.9523-8.3758-11.1079l4.7669-1.9963c.3111 4.2384 3.3216 7.0562 7.2421 9.65z" fill="#fff"/><path d="m57.067 65.3304c-.0144.0001-.0288-.0009-.0431-.0029l-8.4491-1.2063c-.0392-.0055-.077-.0188-.1111-.0389-.0341-.0202-.064-.0469-.0878-.0785-.0238-.0317-.0411-.0677-.051-.1061-.0098-.0384-.012-.0783-.0065-.1175.0056-.0392.0189-.0769.039-.111.0202-.0341.0469-.0639.0786-.0877.0316-.0238.0677-.0411.1061-.051s.0783-.0121.1176-.0065l8.4491 1.2062c.0756.0107.1443.0497.1923.109s.0717.1345.0664.2106-.0392.1473-.095.1994-.1292.0811-.2055.0812z" fill="#fff"/><path d="m55.8584 73.1707c-.0527.0001-.1045-.0137-.1502-.0398-.0457-.0262-.0838-.0639-.1104-.1094s-.0408-.0971-.0412-.1498c-.0003-.0526.0131-.1045.039-.1504l2.7995-4.9805c.0193-.0346.0453-.0651.0765-.0896.0312-.0246.0669-.0428.1051-.0535s.0781-.0139.1175-.0091c.0394.0047.0775.0171.1121.0366.0346.0194.065.0455.0895.0767s.0426.067.0532.1052.0136.0781.0088.1175c-.0049.0394-.0174.0774-.037.1119l-2.7995 4.9805c-.0262.0467-.0643.0855-.1105.1125-.0463.0271-.0988.0413-.1524.0412z" fill="#fff"/><path d="m65.6563 70.7726c-1.177-.6219-2.5441-.7501-3.8181-1.1367-4.5577-1.3829-7.6109-6.5319-6.6361-11.1913.1801-.5976.261-1.2207.2394-1.8445-.1704-1.3799-1.5834-2.2704-2.9382-2.5865-1.3549-.3162-2.7965-.2703-4.0914-.7787-1.9995-.7851-3.3277-2.8386-3.6156-4.9661s.3438-4.2973 1.3712-6.1827l.4894 1.4074c.7464-.6314 1.3004-1.4595 1.5991-2.3901.5562.0934 1.079.3279 1.5185.6812.4395.3532.7809.8132.9916 1.3361.7855.4629.8987-1.4382 1.7664-1.7187.3633-.1174.737.1057 1.0831.267 1.7484.815 3.7798.1182 5.6554-.3336 3.2478-.7785 6.6333-.7825 9.8829-.0116 2.159.5146 4.2959 1.4107 5.8408 3.0033 1.2687 1.3079 2.0592 2.9992 2.7323 4.692 1.6569 4.1674 2.7515 8.6766 2.2045 13.1274-.4555 3.6422-1.9802 7.068-4.3818 9.8451-1.251 1.4405-5.3327 6.466-7.5708 5.6092-2.8121-1.0766.9908-5.0774-2.3226-6.8282z" fill="#2f2e41"/></svg>