<svg fill="none" height="778" viewBox="0 0 909 778" width="909" xmlns="http://www.w3.org/2000/svg" xmlns:xlink="http://www.w3.org/1999/xlink"><clipPath id="a"><path d="m0 0h908.623v777.899h-908.623z"/></clipPath><g clip-path="url(#a)"><path d="m123.572 525.146c52.672 0 95.372-87.124 95.372-194.598s-42.7-194.598-95.372-194.598c-52.6731 0-95.3728 87.124-95.3728 194.598s42.6997 194.598 95.3728 194.598z" fill="#6c63ff"/><path d="m122.696 332.566c4.757-84.707 14.343-141.924 14.439-142.492l-2.08-.352c-.096.568-9.698 57.877-14.464 142.694-4.397 78.28-5.458 196.684 14.464 316.213l2.08-.346c-19.887-119.326-18.829-237.551-14.439-315.717z" fill="#3f3d56"/><path d="m208.812 291.084-86.232 46.153.996 1.86 86.231-46.153z" fill="#3f3d56"/><path d="m32.5429 314.216-.995 1.86 86.2441 46.131.995-1.861z" fill="#3f3d56"/><path d="m784.894 504.917c68.334 0 123.729-113.03 123.729-252.459s-55.395-252.458-123.729-252.458-123.73 113.029-123.73 252.458 55.396 252.459 123.73 252.459z" fill="#6c63ff"/><path d="m783.39 255.044c6.173-109.911 18.611-184.1514 18.736-184.8887l-1.971-.334c-.125.7378-12.579 75.0657-18.76 185.0797-5.704 101.538-7.08 255.118 18.759 410.153l1.973-.328c-25.807-154.844-24.433-308.253-18.737-409.682z" fill="#3f3d56"/><path d="m895.653 201.585-111.871 59.877.944 1.763 111.871-59.877z" fill="#3f3d56"/><path d="m666.627 231.595-.943 1.763 111.887 59.847.943-1.764z" fill="#3f3d56"/><path d="m635.82 573.293c25.531 0 46.229-42.231 46.229-94.325 0-52.095-20.698-94.325-46.229-94.325s-46.229 42.23-46.229 94.325c0 52.094 20.698 94.325 46.229 94.325z" fill="#e6e6e6"/><path d="m635.779 483.032.274.512 41.798-22.372-.944-1.764-41.041 21.967c2.271-41.801 6.916-69.862 7.01-70.415l-1.972-.334c-.102.603-5.621 33.926-7.58 82.145l-41.393-22.156-.944 1.764 41.798 22.372.499-.933c-1.567 39.798-.689 89.56 7.62 139.41l1.973-.328c-9.059-54.352-9.259-108.602-7.098-149.868z" fill="#3f3d56"/><path d="m870.057 685.765c-246.232-77.947-469.509-73.794-613.454-56.585-155.948 18.645-254.90427 56.189-255.885227 56.566l-.717773-1.867c.98389-.378 100.173-38.011 256.365-56.685 91.876-10.971 184.574-13.342 276.89-7.083 114.604 7.757 227.872 29.158 337.406 63.748z" fill="#3f3d56"/><path d="m316.512 663.736s.69-14.469 14.847-12.787z" fill="#3f3d56"/><path d="m312.512 649.966c3.913 0 7.085-3.172 7.085-7.085s-3.172-7.085-7.085-7.085-7.085 3.172-7.085 7.085 3.172 7.085 7.085 7.085z" fill="#6c63ff"/><path d="m313.359 654.812h-2v14h2z" fill="#3f3d56"/><path d="m574.512 666.736s.69-14.469 14.847-12.787z" fill="#3f3d56"/><path d="m570.512 652.966c3.913 0 7.085-3.172 7.085-7.085s-3.172-7.085-7.085-7.085-7.085 3.172-7.085 7.085 3.172 7.085 7.085 7.085z" fill="#6c63ff"/><path d="m571.359 657.812h-2v14h2z" fill="#3f3d56"/><path d="m149.512 641.736s.69-14.469 14.847-12.787z" fill="#3f3d56"/><path d="m145.512 627.966c3.913 0 7.085-3.172 7.085-7.085s-3.172-7.085-7.085-7.085-7.085 3.172-7.085 7.085 3.172 7.085 7.085 7.085z" fill="#6c63ff"/><path d="m146.359 632.812h-2v14h2z" fill="#3f3d56"/><path d="m258.512 622.736s.69-14.469 14.847-12.787z" fill="#3f3d56"/><path d="m254.512 608.966c3.913 0 7.085-3.172 7.085-7.085s-3.172-7.085-7.085-7.085c-3.914 0-7.086 3.172-7.086 7.085s3.172 7.085 7.086 7.085z" fill="#6c63ff"/><path d="m255.359 613.812h-2v14h2z" fill="#3f3d56"/><path d="m531.512 649.736s.69-14.469 14.847-12.787z" fill="#3f3d56"/><path d="m527.512 635.966c3.913 0 7.085-3.172 7.085-7.085s-3.172-7.085-7.085-7.085-7.085 3.172-7.085 7.085 3.172 7.085 7.085 7.085z" fill="#6c63ff"/><path d="m528.359 640.812h-2v14h2z" fill="#3f3d56"/><path d="m839.014 620.729 41.158 61.028-38.32 38.32-4.967-9.935 8.515-19.869s-1.419-18.45-6.386-23.418c-4.968-4.967-26.966-34.771-26.966-34.771z" fill="#ffb8b8"/><path d="m786.502 423.453s7.804 12.352-8.518 65.574c0 0 76.131 128.488 64.067 137.004-12.064 8.515-44.709 27.361-53.224 21.684-8.516-5.677-70.45-198.006-70.45-198.006z" fill="#2f2e41"/><path d="m872.721 670.758 12.418 12.418c6.387 6.387 10.645 15.612-1.419 23.418s-53.931 36.9-68.124 27.675 17.031-17.74 17.031-17.74 5.163-19.143 7.904-14.894c2.74 4.249 2.74 12.765 2.74 12.765z" fill="#2f2e41"/><path d="m722.635 654.082s-22.708 41.868-22.708 46.835c0 4.968 1.42 19.16 1.42 19.16l-43.288 10.644-14.902-7.096 4.968-12.773s26.965-9.225 32.642-26.966c5.677-17.74 12.064-36.191 12.064-36.191z" fill="#ffb8b8"/><path d="m748.891 237.531c16.461 0 29.804-13.343 29.804-29.804 0-16.46-13.343-29.804-29.804-29.804-16.46 0-29.804 13.344-29.804 29.804 0 16.461 13.344 29.804 29.804 29.804z" fill="#ffb8b8"/><path d="m741.085 233.274 14.23 40.885 31.187-13.92s-21.289-32.642-21.289-36.9z" fill="#ffb8b8"/><path d="m736.828 378.747h37.61s26.965 41.159 11.354 84.446c-2.391 6.629-4.764 15.914-7.133 26.892-5.448 25.247-10.871 59.446-16.43 90.872-7.807 44.142-15.88 82.812-24.656 83.514-17.74 1.419-52.239 1.183-52.239-5.914 0-7.096 23.108-212.395 23.108-212.395l4.968-8.516.939-37.092c.148-5.853 2.585-11.415 6.787-15.492 4.203-4.077 9.836-6.344 15.692-6.315z" fill="#2f2e41"/><path d="m699.572 700.562s8.161 13.838 6.032 23.773-5.677 8.515-21.289 9.935c-15.612 1.419-68.834 1.419-68.834-8.516s41.518-22.836 41.693-18.869 1.595 11.773-2.663 13.192-.355.355-.355.355z" fill="#2f2e41"/><path d="m741.091 467.32s-3.087 50.409-23.675 35.402c-20.589-15.007 8.023-42.115 8.023-42.115z" fill="#fff"/><path d="m782.184 400.931c.989.446 2.082.614 3.159.487 1.078-.128 2.101-.547 2.959-1.212 1.246-.977 2.075-2.39 2.322-3.954 2.976-17.16 6.601-64.734 8.688-88.79 2.619-30.186-10.465-53.566-10.574-53.708l-7.711-10.602c-.8-1.108-1.953-1.912-3.269-2.281-1.316-.37-2.718-.283-3.978.247 0 0-24.072 24.974-24.161 25.938-.377 4.141-3.242 13.317-18.175 28.249-16.338 16.339-16.429 30.599-16.067 34.581.023.262.036.523.036.785-.031 1.786.212 3.566.72 5.279 6.843 21.576 1.484 47.406-7.122 74.369-.327 1.219-.266 2.508.173 3.69.439 1.183 1.235 2.199 2.278 2.909 2.513 1.71-.501-.827.396.272 5.931 7.268 14.467-2.862 24.23-13.915 3.401-3.85 7.256-8.214 11.8-12.758 6.246-6.247 18.182 8.008 23.732 8.008 3.652.044 7.253.864 10.564 2.406z" fill="#575a89"/><path d="m785.493 264.761s15.589 13.146 6.732 30.196c-8.856 17.049-7.678 29.624-7.678 29.624s-2.358 117.125-30.031 111.434l-12.587 34.753-22.734-8.205 13.146-30.653s-10.529-.655-7.452-7.829c2.16-5.038 13.802-59.718 20.541-91.821 2.856-13.605 4.831-23.155 4.831-23.155s8.957-47.891 35.232-44.344z" fill="#575a89"/><path d="m788.763 324.281-8.765 57.509 4.729-61.493z" fill="#000" opacity=".2"/><path d="m716.374 194.522s-5.011-38.995 35.873-26.208c0 0 29.199-5.357 38.775 31.167l9.696 38.286-4.725-2.572-2.203 4.815-7.658 1.939-3.276-6.503-1.586 7.898-62.716 6.252s28.089-16.612 28.535-46.385l-5.351 5.654z" fill="#2f2e41"/><path d="m763.014 583.199 13.985-93.186-11.374 100.598z" fill="#000" opacity=".2"/><path d="m785.869 184.466c8.71 0 15.77-7.06 15.77-15.77s-7.06-15.77-15.77-15.77c-8.709 0-15.77 7.06-15.77 15.77s7.061 15.77 15.77 15.77z" fill="#2f2e41"/><path d="m769.62 164.835c.259-4.001 2.033-7.753 4.962-10.491 2.929-2.739 6.791-4.258 10.801-4.248-.326-.042-.649-.092-.981-.113-2.067-.134-4.141.14-6.102.808s-3.771 1.715-5.328 3.082c-1.556 1.368-2.827 3.029-3.742 4.888-.914 1.859-1.453 3.88-1.586 5.947s.143 4.141.812 6.102c.668 1.96 1.717 3.77 3.085 5.326 1.368 1.555 3.03 2.826 4.889 3.739 1.86.913 3.881 1.451 5.948 1.583.332.021.659.013.987.014-3.977-.504-7.613-2.505-10.167-5.596s-3.834-7.04-3.578-11.041z" fill="#2f2e41"/><path d="m740.865 342.202-13.875 74.365 17.984-82.137z" fill="#000" opacity=".2"/><path d="m741.73 229.206-8.087 6.097c-8.328-4.191-14.575-13.888-16.845-23.144l8.812-4.446c.693 9.44 7.394 15.716 16.12 21.493z" fill="#fff"/><path d="m745.089 209.056h-20.15c-.178 0-.349-.071-.475-.197-.126-.125-.197-.296-.197-.474 0-.179.071-.349.197-.475s.297-.197.475-.197h20.15c.178 0 .349.071.474.197.126.126.197.296.197.475 0 .178-.071.349-.197.474-.125.126-.296.197-.474.197z" fill="#fff"/><path d="m741.059 229.206c-.11 0-.218-.027-.315-.078-.097-.052-.18-.126-.242-.217-.061-.091-.099-.196-.111-.305s.004-.219.044-.321l5.374-13.433c.032-.082.081-.157.142-.221.062-.063.135-.114.216-.149.081-.034.169-.053.257-.054s.176.015.258.048.157.081.22.143.113.135.148.217c.035.081.053.168.054.256.001.089-.016.176-.049.258l-5.373 13.433c-.05.125-.136.232-.247.307-.111.076-.242.116-.376.116z" fill="#fff"/><path d="m746.444 216.992c2.722 0 4.928-3.089 4.928-6.899 0-3.811-2.206-6.9-4.928-6.9s-4.928 3.089-4.928 6.9c0 3.81 2.206 6.899 4.928 6.899z" fill="#ffb8b8"/><path d="m399.191 230.876 52.486 12.011 22.176-41.825-44.879-17.522z" fill="#2f2e41"/><path d="m427.077 456.027s-16.872 38.664-16.872 49.912c0 0 6.679 30.579 4.57 39.015l-7.382 15.817-15.465-6.327-4.218-42.178.703-67.487z" fill="#ffb9b9"/><path d="m436.567 224.746s1.406 23.198-1.406 30.228 10.545 20.386 10.545 20.386l21.09-27.416s-14.06-14.059-10.545-29.525z" fill="#ffb9b9"/><path d="m392.631 385.377s-20.386 37.961-.703 35.149 13.005-36.204 13.005-36.204" fill="#e6e6e6"/><path d="m404.933 384.323 6.678-66.432-.351-40.421-15.466 2.811v37.258l-3.163 67.838" fill="#ffb9b9"/><path d="m388.062 549.523 30.228-11.951 3.515 59.754s6.327 18.277 4.218 25.307c0 0 1.406 11.951-2.109 12.654s-13.357 2.109-14.06 1.406-.703-2.812-.703-2.812-7.03 4.921-7.733 10.545c0 0-29.525 9.138-30.228.703-.703-8.436 14.763-15.466 14.763-15.466l11.951-18.278z" fill="#2f2e41"/><path d="m489.994 456.027s-16.872 38.664-16.872 49.912c0 0 6.679 30.579 4.57 39.015l-7.382 15.817-15.465-6.327-4.218-42.178.703-67.487z" fill="#ffb9b9"/><path d="m452.033 549.523 30.228-11.951 3.515 59.754s6.327 18.277 4.218 25.307c0 0 1.406 11.951-2.109 12.654s-13.357 2.109-14.06 1.406-.703-2.812-.703-2.812-7.029 4.921-7.732 10.545c0 0-29.526 9.138-30.229.703-.703-8.436 14.763-15.466 14.763-15.466l11.951-18.278z" fill="#2f2e41"/><path d="m466.098 208.581c-.003 5.536-2.046 10.877-5.74 15.001-3.694 4.123-8.779 6.74-14.281 7.349-5.502.61-11.036-.831-15.543-4.047-4.506-3.215-7.669-7.98-8.883-13.381-.37-1.614-.554-3.266-.55-4.922.004-5.964 2.376-11.683 6.595-15.899 4.218-4.216 9.939-6.584 15.903-6.584s11.685 2.368 15.904 6.584c4.218 4.216 6.591 9.935 6.595 15.899z" fill="#ffb9b9"/><path d="m446.409 253.568 17.457-9.065 7.85 6.253s18.981-.703 26.011 7.733 10.896 29.877 10.896 29.877-23.199-4.921-20.387 14.762l-4.218-11.247-3.866 9.49-47.1 16.169-21.089-35.852s-14.06-4.218-18.981 5.623c0 0 1.055-35.5 14.763-36.555 9.219-.709 16.169-.703 16.169-.703l7.732-1.406 4.952-1.757z" fill="#575a89"/><path d="m476.286 330.545s36.906 110.72 26.362 126.185c0 0-39.367 19.684-118.101-7.029l31.985-124.077c19.648-4.018 39.566-2.377 59.754 4.921z" fill="#2f2e41"/><path d="m476.286 330.545 10.387-35.695c-12.46-13.55-1.706-43.598-1.706-43.598l-15.034-3.221s-15.088 40.686-30.554 35.765c-15.465-4.921-7.03-36.555-7.03-36.555l-14.059 1.406-6.327 24.605 4.569 52.372c19.057-1.635 39.043.267 59.754 4.921z" fill="#575a89"/><path d="m494.563 384.323 4.921-66.784 1.406-40.069-15.465 2.811v37.258l-3.164 67.838" fill="#ffb9b9"/><path d="m482.261 385.377s-20.387 37.961-.703 35.149c19.683-2.812 13.005-36.204 13.005-36.204" fill="#fff"/><path d="m508.623 288.366s-2.499-36.102-23.394-35.977v41.75s15.661-9.288 23.394-5.773z" fill="#575a89"/><path d="m450.792 214.386c-.119 0-.235-.037-.332-.106-.097-.068-.17-.166-.209-.278-.04-.112-.043-.234-.01-.348.032-.114.1-.216.193-.29l11.473-9.178c.058-.048.126-.083.199-.105.072-.021.148-.028.224-.02.075.008.148.031.214.067.067.037.125.086.172.145.048.059.083.127.104.2.021.072.027.149.018.224-.008.075-.032.148-.068.214-.037.066-.087.124-.146.171l-11.473 9.178c-.102.082-.228.126-.359.126z" fill="#fff"/><path d="m451.661 228.154c-.253.31-.505.619-.769.906-3.044 1.38-6.357 2.065-9.699 2.004s-6.628-.865-9.62-2.355-5.614-3.628-7.676-6.258c-2.063-2.63-3.513-5.687-4.246-8.948l10.872-2 21.138 2c-4.842 5.897-4.257 7.939 0 14.651z" fill="#fff"/><g fill="#2f2e41"><path d="m430.896 177.092s-11.627 2.187-14.316 16.687c-.42 2.446-.497 4.938-.228 7.405.269 2.791-.121 8.687-6.181 15.628-3.955 4.503-7.64 9.235-11.036 14.173l12.149 3.234 5.429-20.129c2.631-9.759 6.685-19.077 12.032-27.655l.111-.179s4.035 10.782 14.851 12.26l-3.335-4.391s12.643 7.309 19.806 9.542c.817.255 1.55.728 2.118 1.368.569.641.952 1.424 1.108 2.266s.08 1.71-.221 2.512-.815 1.506-1.486 2.038c-.051.039-.103.079-.156.12-5.268 4.001-16.016 13.549-11.77 22.786s-.706 10.921-.706 10.921l9.131-3.474 4.18-1.79-.423 3.091 20.403.427s5.513-.034-4.28-14.75c0 0-2.363-5.518-.423-9.734 1.557-3.192 2.332-6.709 2.261-10.26-.617-14.837-6.867-45.021-49.018-32.096z"/><path d="m144.696 599.713s0 95.462-21.91 120.501c0 0-4.694 12.52-6.259 17.215-.875 2.672-1.921 5.286-3.13 7.824v6.26s-42.2539-4.695-46.9488-15.649l7.8248-9.39s1.5649-1.565 0-6.26c-1.565-4.695 3.1299-4.695 3.1299-4.695l10.9546-25.039-1.5649-103.286 7.8248-142.411 67.2926-3.13z"/><path d="m110.267 742.123s10.955 32.864 0 34.429c-10.9545 1.565-106.41644 3.13-104.85149-9.39 1.56495-12.519 32.86389-10.954 32.86389-10.954l32.864-20.345z"/><path d="m207.294 444.783s3.129 20.345-9.39 42.254c-12.52 21.909-4.695 95.462-4.695 95.462l111.111 97.027s-21.909 37.558-29.734 35.993c-7.824-1.565-131.455-101.721-131.455-101.721l-48.5138-162.755z"/><path d="m302.794 675.379s33.622 8.341 29.08 18.431c-4.543 10.091-54.327 91.559-64.063 83.535-9.737-8.025 8.341-33.623 8.341-33.623l.41-38.649z"/></g><path d="m182.254 153.705c.013 8.245-2.822 16.241-8.023 22.637-4.114 5.098-9.543 8.973-15.701 11.206-6.157 2.234-12.809 2.74-19.234 1.465-3.216-.622-6.33-1.694-9.248-3.183-4.635-2.336-8.71-5.648-11.944-9.707-3.235-4.06-5.552-8.771-6.793-13.811-.7-2.816-1.051-5.706-1.046-8.607 0-9.546 3.792-18.702 10.542-25.452 6.751-6.75 15.906-10.543 25.452-10.543 9.547 0 18.702 3.793 25.453 10.543 6.75 6.75 10.542 15.906 10.542 25.452z" fill="#a0616a"/><path d="m174.581 166.402-1.592 46.318-30.286 11.966s-2.97-47.426-7.163-50.055c-4.192-2.629 39.041-8.229 39.041-8.229z" fill="#a0616a"/><path d="m135.306 230.384s42.254-42.253 53.209-40.688c10.954 1.565 10.954 6.26 10.954 9.389 0 3.13-3.129 4.695 0 6.26 3.13 1.565 6.26 0 6.26 4.695s28.169 51.643 18.78 103.287c-9.39 51.643-20.345 76.682-15.65 104.851s1.565 34.429 1.565 34.429-117.3712 9.39-118.9361-1.565c-1.5649-10.954 4.6949-4.695-3.1299-12.519-7.8247-7.825-4.6948-7.825-4.6948-12.52s34.4288-195.619 51.6428-195.619z" fill="#575a89"/><path d="m157.216 443.218s-18.78 45.384-32.864 34.429c-14.085-10.954 6.26-48.513 6.26-48.513z" fill="#fff"/><path d="m202.6 233.515s36.768 4.209 23.079 71.745c-13.69 67.535-66.898 145.783-66.898 145.783l-35.994-17.215 46.949-92.332-10.955-57.903s-6.26-54.773 43.819-50.078z" fill="#575a89"/><path d="m170.518 342.279-51.644 86.072 4.695 4.695z" fill="#000" opacity=".2"/><path d="m197.853 382.389-41.42 67.871h14.085z" fill="#000" opacity=".2"/><path d="m104.29 505.73-2.081.793 41.182 107.975 2.08-.793z" fill="#000" opacity=".2"/><path d="m135.528 238.977c1.23 0 2.226-.997 2.226-2.226 0-1.23-.996-2.227-2.226-2.227s-2.226.997-2.226 2.227c0 1.229.996 2.226 2.226 2.226z" fill="#d0cde1"/><path d="m116.605 299.087c.237 0 .469-.077.66-.218.192-.141.333-.34.403-.567l18.923-61.222c.043-.139.059-.286.045-.432-.013-.146-.055-.287-.123-.417-.068-.129-.161-.244-.274-.337-.112-.094-.242-.164-.382-.208-.14-.043-.287-.058-.432-.044-.146.013-.288.055-.417.124-.129.068-.244.161-.337.274s-.164.243-.206.383l-18.924 61.222c-.051.167-.062.343-.033.515.029.171.098.334.202.474.103.14.238.254.393.333.156.078.327.119.502.12z" fill="#d0cde1"/><path d="m139.043 181.273-8.995 8.557c-9.264-4.662-18.212-17.224-20.737-27.519l11.801-4.945c.771 10.5 8.224 17.481 17.931 23.907z" fill="#fff"/><path d="m141.285 161.848c-.035 0-.071-.002-.106-.007l-20.919-2.988c-.097-.014-.19-.047-.275-.097-.084-.05-.158-.116-.217-.194-.059-.079-.102-.168-.126-.263-.025-.095-.03-.194-.016-.291.013-.097.046-.191.096-.275.05-.085.116-.159.195-.217.078-.059.167-.102.262-.127.095-.024.194-.03.291-.016l20.919 2.988c.187.027.357.123.476.27s.178.334.164.522c-.013.189-.097.365-.235.494s-.32.201-.509.201z" fill="#fff"/><path d="m138.296 181.273c-.13 0-.259-.034-.372-.099s-.207-.158-.273-.271c-.066-.112-.101-.24-.102-.371-.001-.13.032-.259.096-.372l6.931-12.339c.048-.086.113-.161.19-.222s.165-.106.26-.133c.094-.026.193-.034.291-.022.097.011.192.042.277.09.086.049.161.113.222.191.061.077.105.165.132.26.026.095.033.194.021.291-.012.098-.043.192-.091.277l-6.931 12.339c-.065.116-.159.212-.274.279-.114.067-.244.102-.377.102z" fill="#fff"/><path d="m162.552 175.331c-2.913-1.541-6.298-1.858-9.452-2.816-11.284-3.426-18.843-16.182-16.43-27.725.446-1.481.646-3.024.593-4.57-.422-3.419-3.921-5.624-7.275-6.408-3.354-.783-6.923-.669-10.13-1.929-4.95-1.945-8.238-7.032-8.951-12.303-.713-5.27.851-10.646 3.395-15.317l1.212 3.487c1.847-1.564 3.219-3.616 3.959-5.921 1.377.231 2.671.812 3.759 1.687s1.934 2.015 2.455 3.31c1.945 1.147 2.225-3.563 4.373-4.257.9-.291 1.825.261 2.682.661 4.329 2.019 9.358.293 14.002-.826 8.041-1.929 16.423-1.939 24.468-.029 5.345 1.275 10.636 3.495 14.461 7.44 3.141 3.24 5.098 7.43 6.764 11.624 4.102 10.324 6.813 21.495 5.458 32.522-1.128 9.023-4.902 17.51-10.848 24.39-3.098 3.569-13.203 16.019-18.744 13.896-6.962-2.667 2.453-12.579-5.751-16.916z" fill="#2f2e41"/></g></svg>